<svg id="Layer_1" xmlns="http://www.w3.org/2000/svg" viewBox="17.6 17.6 64.8 64.8"><path fill="#FFF" d="M52.3 19.9l1.8 7.3c3.3.6 6.4 1.9 9 3.7l6.5-3.9 3.3 3.3-3.9 6.5c1.8 2.7 3.1 5.7 3.7 9l7.3 1.8v4.6L72.7 54c-.6 3.3-1.9 6.4-3.7 9l3.9 6.5-3.3 3.3-6.4-3.8c-2.7 1.8-5.7 3.1-9 3.7L52.4 80h-4.6L46 72.7c-3.3-.6-6.4-1.9-9-3.7l-6.5 3.9-3.3-3.3 3.9-6.5c-1.8-2.7-3.1-5.7-3.7-9l-7.3-1.8v-4.6l7.3-1.8c.6-3.3 1.9-6.4 3.7-9l-3.9-6.5 3.3-3.3L37 31c2.7-1.8 5.7-3.1 9-3.7l1.8-7.3 4.5-.1M50 66.2c8.9 0 16.2-7.3 16.2-16.2S58.9 33.8 50 33.8 33.8 41.1 33.8 50 41.1 66.2 50 66.2m2.3-48.6h-4.6c-1.1 0-2 .7-2.2 1.8L44 25.3c-2.5.6-4.9 1.6-7.2 3l-5.2-3.1c-.4-.2-.8-.3-1.2-.3-.6 0-1.2.2-1.6.7l-3.3 3.3c-.8.8-.9 1.9-.3 2.8l3.1 5.2c-1.4 2.2-2.3 4.6-3 7.2l-5.9 1.5c-1 .3-1.8 1.2-1.8 2.2v4.6c0 1.1.7 2 1.8 2.2l5.9 1.5c.6 2.5 1.6 4.9 3 7.2l-3.1 5.2c-.5.9-.4 2.1.3 2.8l3.3 3.3c.4.4 1 .7 1.6.7.4 0 .8-.1 1.2-.3l5.2-3.1c2.2 1.4 4.6 2.3 7.2 3l1.5 5.9c.3 1 1.2 1.8 2.2 1.8h4.6c1.1 0 2-.7 2.2-1.8l1.5-5.9c2.5-.6 4.9-1.6 7.2-3l5.2 3.1c.4.2.8.3 1.2.3.6 0 1.2-.2 1.6-.7l3.3-3.3c.8-.8.9-1.9.3-2.8l-3.1-5.2c1.4-2.2 2.3-4.6 3-7.2l5.9-1.5c1-.3 1.8-1.2 1.8-2.2v-4.6c0-1.1-.7-2-1.8-2.2L74.7 44c-.6-2.5-1.6-4.9-3-7.2l3.1-5.2c.5-.9.4-2.1-.3-2.8l-3.3-3.3c-.4-.4-1-.7-1.6-.7-.4 0-.8.1-1.2.3l-5.2 3.1c-2.2-1.4-4.6-2.3-7.2-3l-1.5-5.9c-.2-1-1.1-1.7-2.2-1.7zM50 63.9c-7.7 0-13.9-6.2-13.9-13.9S42.3 36.1 50 36.1 63.9 42.3 63.9 50 57.7 63.9 50 63.9z"/></svg>