<?xml version="1.0" encoding="utf-8"?>
<!-- Generator: Adobe Illustrator 18.0.0, SVG Export Plug-In . SVG Version: 6.00 Build 0)  -->
<!DOCTYPE svg PUBLIC "-//W3C//DTD SVG 1.1//EN" "http://www.w3.org/Graphics/SVG/1.1/DTD/svg11.dtd">
<svg version="1.1" id="Layer_1" xmlns="http://www.w3.org/2000/svg" xmlns:xlink="http://www.w3.org/1999/xlink" x="0px" y="0px"
	 viewBox="17.6 17.6 64.8 64.8" enable-background="new 17.6 17.6 64.8 64.8" xml:space="preserve">
<path fill="#FFFFFF" d="M52.3,19.9l1.8,7.3c3.3,0.6,6.4,1.9,9,3.7l6.5-3.9l3.3,3.3L69,36.8c1.8,2.7,3.1,5.7,3.7,9l7.3,1.8v4.6
	l-7.3,1.8c-0.6,3.3-1.9,6.4-3.7,9l3.9,6.5l-3.3,3.3L63.2,69c-2.7,1.8-5.7,3.1-9,3.7l-1.8,7.3h-4.6l-1.8-7.3c-3.3-0.6-6.4-1.9-9-3.7
	l-6.5,3.9l-3.3-3.3l3.9-6.5c-1.8-2.7-3.1-5.7-3.7-9l-7.3-1.8v-4.6l7.3-1.8c0.6-3.3,1.9-6.4,3.7-9l-3.9-6.5l3.3-3.3l6.5,3.9
	c2.7-1.8,5.7-3.1,9-3.7l1.8-7.3L52.3,19.9 M50,66.2c8.9,0,16.2-7.3,16.2-16.2S58.9,33.8,50,33.8S33.8,41.1,33.8,50
	S41.1,66.2,50,66.2 M52.3,17.6h-4.6c-1.1,0-2,0.7-2.2,1.8L44,25.3c-2.5,0.6-4.9,1.6-7.2,3l-5.2-3.1c-0.4-0.2-0.8-0.3-1.2-0.3
	c-0.6,0-1.2,0.2-1.6,0.7l-3.3,3.3c-0.8,0.8-0.9,1.9-0.3,2.8l3.1,5.2c-1.4,2.2-2.3,4.6-3,7.2l-5.9,1.5c-1,0.3-1.8,1.2-1.8,2.2v4.6
	c0,1.1,0.7,2,1.8,2.2l5.9,1.5c0.6,2.5,1.6,4.9,3,7.2l-3.1,5.2c-0.5,0.9-0.4,2.1,0.3,2.8l3.3,3.3c0.4,0.4,1,0.7,1.6,0.7
	c0.4,0,0.8-0.1,1.2-0.3l5.2-3.1c2.2,1.4,4.6,2.3,7.2,3l1.5,5.9c0.3,1,1.2,1.8,2.2,1.8h4.6c1.1,0,2-0.7,2.2-1.8l1.5-5.9
	c2.5-0.6,4.9-1.6,7.2-3l5.2,3.1c0.4,0.2,0.8,0.3,1.2,0.3c0.6,0,1.2-0.2,1.6-0.7l3.3-3.3c0.8-0.8,0.9-1.9,0.3-2.8l-3.1-5.2
	c1.4-2.2,2.3-4.6,3-7.2l5.9-1.5c1-0.3,1.8-1.2,1.8-2.2v-4.6c0-1.1-0.7-2-1.8-2.2L74.7,44c-0.6-2.5-1.6-4.9-3-7.2l3.1-5.2
	c0.5-0.9,0.4-2.1-0.3-2.8l-3.3-3.3c-0.4-0.4-1-0.7-1.6-0.7c-0.4,0-0.8,0.1-1.2,0.3l-5.2,3.1c-2.2-1.4-4.6-2.3-7.2-3l-1.5-5.9
	C54.3,18.3,53.4,17.6,52.3,17.6L52.3,17.6z M50,63.9c-7.7,0-13.9-6.2-13.9-13.9c0-7.7,6.2-13.9,13.9-13.9c7.7,0,13.9,6.2,13.9,13.9
	C63.9,57.7,57.7,63.9,50,63.9L50,63.9z"/>
</svg>
